<mxfile host="65bd71144e">
    <diagram id="EskQeJ8CZUJFmeyXEKAG" name="Page-1">
        <mxGraphModel dx="1080" dy="942" grid="0" gridSize="10" guides="1" tooltips="1" connect="1" arrows="1" fold="1" page="1" pageScale="1" pageWidth="827" pageHeight="1169" background="#ffffff" math="0" shadow="1">
            <root>
                <mxCell id="0"/>
                <mxCell id="1" parent="0"/>
                <mxCell id="13" style="edgeStyle=none;sketch=1;hachureGap=4;jiggle=2;curveFitting=1;html=1;exitX=0.5;exitY=1;exitDx=0;exitDy=0;entryX=0.5;entryY=0;entryDx=0;entryDy=0;shadow=1;strokeColor=#000000;strokeWidth=3;fontFamily=Architects Daughter;fontSource=https%3A%2F%2Ffonts.googleapis.com%2Fcss%3Ffamily%3DArchitects%2BDaughter;fontSize=25;fontColor=#000000;fillColor=#6a00ff;labelBorderColor=none;snapToPoint=1;sketchStyle=rough;fontStyle=1" edge="1" parent="1" source="2" target="4">
                    <mxGeometry relative="1" as="geometry"/>
                </mxCell>
                <mxCell id="2" value="&lt;b&gt;&lt;font style=&quot;font-size: 25px;&quot; color=&quot;#000000&quot;&gt;START&lt;/font&gt;&lt;/b&gt;" style="ellipse;whiteSpace=wrap;html=1;sketch=1;hachureGap=4;jiggle=2;curveFitting=1;fontFamily=Architects Daughter;fontSource=https%3A%2F%2Ffonts.googleapis.com%2Fcss%3Ffamily%3DArchitects%2BDaughter;fontSize=20;fillColor=#6a00ff;strokeColor=#3700CC;strokeWidth=3;shadow=1;fontColor=#ffffff;labelBorderColor=none;snapToPoint=1;sketchStyle=rough;fillStyle=dashed;" vertex="1" parent="1">
                    <mxGeometry x="287" y="82" width="166" height="66" as="geometry"/>
                </mxCell>
                <mxCell id="12" style="edgeStyle=none;sketch=1;hachureGap=4;jiggle=2;curveFitting=1;html=1;exitX=0.5;exitY=1;exitDx=0;exitDy=0;entryX=0.5;entryY=0;entryDx=0;entryDy=0;shadow=1;strokeColor=#000000;strokeWidth=3;fontFamily=Architects Daughter;fontSource=https%3A%2F%2Ffonts.googleapis.com%2Fcss%3Ffamily%3DArchitects%2BDaughter;fontSize=25;fontColor=#000000;fillColor=#6a00ff;labelBorderColor=none;snapToPoint=1;sketchStyle=rough;fontStyle=1" edge="1" parent="1" source="4" target="5">
                    <mxGeometry relative="1" as="geometry"/>
                </mxCell>
                <mxCell id="4" value="&lt;b&gt;&lt;font style=&quot;font-size: 25px;&quot; color=&quot;#000000&quot;&gt;INPUT A&lt;/font&gt;&lt;/b&gt;" style="rhombus;whiteSpace=wrap;html=1;sketch=1;hachureGap=4;jiggle=2;curveFitting=1;strokeColor=#2D7600;strokeWidth=3;fontFamily=Architects Daughter;fontSource=https%3A%2F%2Ffonts.googleapis.com%2Fcss%3Ffamily%3DArchitects%2BDaughter;fontSize=20;fillColor=#60a917;shadow=1;fontColor=#ffffff;labelBorderColor=none;snapToPoint=1;sketchStyle=rough;fillStyle=dashed;" vertex="1" parent="1">
                    <mxGeometry x="282" y="215" width="178" height="165" as="geometry"/>
                </mxCell>
                <mxCell id="11" style="edgeStyle=none;sketch=1;hachureGap=4;jiggle=2;curveFitting=1;html=1;exitX=0.5;exitY=1;exitDx=0;exitDy=0;entryX=0.5;entryY=0;entryDx=0;entryDy=0;fontFamily=Architects Daughter;fontSource=https%3A%2F%2Ffonts.googleapis.com%2Fcss%3Ffamily%3DArchitects%2BDaughter;fontSize=25;fontColor=#000000;shadow=1;strokeColor=#000000;strokeWidth=3;fillColor=#6a00ff;labelBorderColor=none;snapToPoint=1;sketchStyle=rough;fontStyle=1" edge="1" parent="1" source="5" target="6">
                    <mxGeometry relative="1" as="geometry"/>
                </mxCell>
                <mxCell id="5" value="&lt;font color=&quot;#000000&quot;&gt;&lt;span style=&quot;font-size: 25px;&quot;&gt;&lt;b&gt;C = 1&lt;/b&gt;&lt;/span&gt;&lt;/font&gt;" style="whiteSpace=wrap;html=1;sketch=1;hachureGap=4;jiggle=2;curveFitting=1;strokeColor=#006EAF;strokeWidth=3;fontFamily=Architects Daughter;fontSource=https%3A%2F%2Ffonts.googleapis.com%2Fcss%3Ffamily%3DArchitects%2BDaughter;fontSize=20;fillColor=#1ba1e2;shadow=1;fontColor=#ffffff;labelBorderColor=none;snapToPoint=1;sketchStyle=rough;gradientDirection=radial;fillStyle=dashed;" vertex="1" parent="1">
                    <mxGeometry x="278.5" y="439" width="191" height="91" as="geometry"/>
                </mxCell>
                <mxCell id="14" style="edgeStyle=none;sketch=1;hachureGap=4;jiggle=2;curveFitting=1;html=1;exitX=1;exitY=0.5;exitDx=0;exitDy=0;entryX=0.5;entryY=0;entryDx=0;entryDy=0;shadow=1;strokeColor=#000000;strokeWidth=3;fontFamily=Architects Daughter;fontSource=https%3A%2F%2Ffonts.googleapis.com%2Fcss%3Ffamily%3DArchitects%2BDaughter;fontSize=25;fontColor=#000000;fillColor=#6a00ff;labelBorderColor=none;snapToPoint=1;sketchStyle=rough;fontStyle=1" edge="1" parent="1" source="6" target="8">
                    <mxGeometry relative="1" as="geometry">
                        <Array as="points">
                            <mxPoint x="570" y="673"/>
                        </Array>
                    </mxGeometry>
                </mxCell>
                <mxCell id="15" style="edgeStyle=none;sketch=1;hachureGap=4;jiggle=2;curveFitting=1;html=1;exitX=0;exitY=0.5;exitDx=0;exitDy=0;entryX=0.5;entryY=0;entryDx=0;entryDy=0;shadow=1;strokeColor=#000000;strokeWidth=3;fontFamily=Architects Daughter;fontSource=https%3A%2F%2Ffonts.googleapis.com%2Fcss%3Ffamily%3DArchitects%2BDaughter;fontSize=25;fontColor=#000000;fillColor=#6a00ff;labelBorderColor=none;snapToPoint=1;sketchStyle=rough;fontStyle=1" edge="1" parent="1" source="6" target="7">
                    <mxGeometry relative="1" as="geometry">
                        <Array as="points">
                            <mxPoint x="175" y="673"/>
                        </Array>
                    </mxGeometry>
                </mxCell>
                <mxCell id="6" value="&lt;font color=&quot;#000000&quot;&gt;&lt;span style=&quot;font-size: 25px;&quot;&gt;&lt;b&gt;IS&amp;nbsp;&lt;br&gt;C&amp;lt;=5&lt;br&gt;&lt;/b&gt;&lt;/span&gt;&lt;/font&gt;" style="rhombus;whiteSpace=wrap;html=1;sketch=1;hachureGap=4;jiggle=2;curveFitting=1;strokeColor=#6F0000;strokeWidth=3;fontFamily=Architects Daughter;fontSource=https%3A%2F%2Ffonts.googleapis.com%2Fcss%3Ffamily%3DArchitects%2BDaughter;fontSize=20;fillColor=#a20025;shadow=1;fontColor=#ffffff;labelBorderColor=none;snapToPoint=1;sketchStyle=rough;fillStyle=dashed;" vertex="1" parent="1">
                    <mxGeometry x="287" y="590" width="178" height="165" as="geometry"/>
                </mxCell>
                <mxCell id="7" value="&lt;font color=&quot;#000000&quot;&gt;&lt;span style=&quot;font-size: 25px;&quot;&gt;&lt;b&gt;STOP&lt;/b&gt;&lt;/span&gt;&lt;/font&gt;" style="ellipse;whiteSpace=wrap;html=1;sketch=1;hachureGap=4;jiggle=2;curveFitting=1;fontFamily=Architects Daughter;fontSource=https%3A%2F%2Ffonts.googleapis.com%2Fcss%3Ffamily%3DArchitects%2BDaughter;fontSize=20;fillColor=#fa6800;strokeColor=#C73500;strokeWidth=3;shadow=1;fontColor=#000000;labelBorderColor=none;snapToPoint=1;sketchStyle=rough;fillStyle=dashed;" vertex="1" parent="1">
                    <mxGeometry x="98" y="770" width="166" height="66" as="geometry"/>
                </mxCell>
                <mxCell id="16" style="edgeStyle=none;sketch=1;hachureGap=4;jiggle=2;curveFitting=1;html=1;exitX=0.5;exitY=1;exitDx=0;exitDy=0;entryX=0.5;entryY=0;entryDx=0;entryDy=0;shadow=1;strokeColor=#000000;strokeWidth=3;fontFamily=Architects Daughter;fontSource=https%3A%2F%2Ffonts.googleapis.com%2Fcss%3Ffamily%3DArchitects%2BDaughter;fontSize=25;fontColor=#000000;fillColor=#6a00ff;labelBorderColor=none;snapToPoint=1;sketchStyle=rough;fontStyle=1" edge="1" parent="1" source="8" target="9">
                    <mxGeometry relative="1" as="geometry"/>
                </mxCell>
                <mxCell id="8" value="&lt;font color=&quot;#000000&quot;&gt;&lt;span style=&quot;font-size: 25px;&quot;&gt;&lt;b&gt;PRINT A&lt;/b&gt;&lt;/span&gt;&lt;/font&gt;" style="shape=parallelogram;perimeter=parallelogramPerimeter;whiteSpace=wrap;html=1;fixedSize=1;sketch=1;hachureGap=4;jiggle=2;curveFitting=1;strokeColor=#C73500;strokeWidth=3;fontFamily=Architects Daughter;fontSource=https%3A%2F%2Ffonts.googleapis.com%2Fcss%3Ffamily%3DArchitects%2BDaughter;fontSize=20;fillColor=#fa6800;shadow=1;fontColor=#000000;labelBorderColor=none;snapToPoint=1;sketchStyle=rough;fillStyle=dashed;" vertex="1" parent="1">
                    <mxGeometry x="469.5" y="755" width="188" height="81" as="geometry"/>
                </mxCell>
                <mxCell id="17" style="edgeStyle=none;sketch=1;hachureGap=4;jiggle=2;curveFitting=1;html=1;exitX=1;exitY=0.5;exitDx=0;exitDy=0;shadow=1;strokeColor=#000000;strokeWidth=3;fontFamily=Architects Daughter;fontSource=https%3A%2F%2Ffonts.googleapis.com%2Fcss%3Ffamily%3DArchitects%2BDaughter;fontSize=25;fontColor=#000000;fillColor=#6a00ff;labelBorderColor=none;snapToPoint=1;sketchStyle=rough;fontStyle=1" edge="1" parent="1" source="9">
                    <mxGeometry relative="1" as="geometry">
                        <mxPoint x="375" y="550.8333587646484" as="targetPoint"/>
                        <Array as="points">
                            <mxPoint x="732" y="946"/>
                            <mxPoint x="737" y="551"/>
                        </Array>
                    </mxGeometry>
                </mxCell>
                <mxCell id="9" value="&lt;font color=&quot;#000000&quot;&gt;&lt;span style=&quot;font-size: 25px;&quot;&gt;&lt;b&gt;C = C + 1&lt;/b&gt;&lt;/span&gt;&lt;/font&gt;" style="whiteSpace=wrap;html=1;sketch=1;hachureGap=4;jiggle=2;curveFitting=1;strokeColor=#BD7000;strokeWidth=3;fontFamily=Architects Daughter;fontSource=https%3A%2F%2Ffonts.googleapis.com%2Fcss%3Ffamily%3DArchitects%2BDaughter;fontSize=20;fillColor=#f0a30a;shadow=1;fontColor=#000000;labelBorderColor=none;snapToPoint=1;sketchStyle=rough;fillStyle=dashed;" vertex="1" parent="1">
                    <mxGeometry x="468" y="900" width="191" height="91" as="geometry"/>
                </mxCell>
            </root>
        </mxGraphModel>
    </diagram>
</mxfile>